<?xml version="1.0" encoding="UTF-8" standalone="no"?>
<!DOCTYPE svg PUBLIC "-//W3C//DTD SVG 1.1//EN" "http://www.w3.org/Graphics/SVG/1.1/DTD/svg11.dtd">
<svg xmlns="http://www.w3.org/2000/svg" version="1.1" viewBox="0.00 0.00 1200.00 628.00">
<g stroke-width="2.00" fill="none" stroke-linecap="butt">
<path stroke="#cdcdcf" vector-effect="non-scaling-stroke" d="
  M 494.44 316.86
  L 598.92 420.77
  A 0.68 0.67 45.3 0 0 599.86 420.78
  C 612.73 408.55 624.84 395.97 636.04 384.93
  C 647.97 373.18 659.57 361.21 671.71 349.38
  Q 678.65 342.61 685.88 335.23
  Q 697.82 323.04 703.82 317.57
  Q 704.83 316.64 705.80 317.42"
/>
<path stroke="#80a9cd" vector-effect="non-scaling-stroke" d="
  M 705.80 317.42
  L 809.80 420.75
  A 1.08 1.08 0.0 0 0 811.30 420.77
  C 823.32 409.25 834.92 397.11 846.99 385.33
  Q 859.66 372.95 871.40 360.90
  C 874.78 357.44 878.48 354.19 881.86 350.70
  Q 894.08 338.10 911.37 320.97
  Q 953.86 278.90 995.80 236.86
  Q 997.32 235.33 998.04 233.78
  A 0.53 0.52 34.9 0 0 997.93 233.19
  L 811.04 47.25
  A 1.15 1.15 0.0 0 0 809.42 47.26
  L 705.13 151.46"
/>

<path stroke="#80ceab" vector-effect="non-scaling-stroke" d="
  M 494.43 151.25
  L 390.72 47.52
  A 1.55 1.54 44.9 0 0 388.53 47.52
  Q 300.50 135.60 206.90 228.83
  C 205.66 230.07 203.81 231.47 202.62 232.86
  Q 201.51 234.15 202.72 235.35
  L 388.29 420.31
  Q 389.54 421.56 390.79 420.31
  Q 393.90 417.21 397.06 414.06
  Q 430.66 380.52 473.62 337.87
  Q 476.96 334.55 481.26 330.13
  Q 482.73 328.61 488.05 323.70
  Q 491.57 320.46 494.44 316.86"
/>
<path stroke="#4d9c7b" vector-effect="non-scaling-stroke" d="
  M 494.43 151.25
  Q 494.42 152.02 493.84 152.59
  Q 474.34 171.84 455.06 191.31
  Q 454.28 192.09 453.38 192.42"
/>
<path stroke="#80ceab" vector-effect="non-scaling-stroke" d="
  M 453.38 192.42
  L 390.17 130.04
  A 1.00 1.00 0.0 0 0 388.76 130.04
  L 285.30 233.19
  Q 284.71 233.78 285.30 234.36
  L 389.09 337.79
  A 0.85 0.85 0.0 0 0 390.29 337.79
  L 453.23 274.89"
/>
<path stroke="#4d9c7b" vector-effect="non-scaling-stroke" d="
  M 453.23 274.89
  Q 454.11 274.65 454.89 273.89
  Q 479.10 249.88 536.06 192.65"
/>
<path stroke="#80ceab" vector-effect="non-scaling-stroke" d="
  M 536.06 192.65
  L 576.60 232.64
  Q 577.95 233.97 576.60 235.31
  L 535.86 275.82"
/>
<path stroke="#4d9c7b" vector-effect="non-scaling-stroke" d="
  M 535.86 275.82
  Q 514.27 296.04 494.44 316.86"
/>

<path stroke="#4d779d" vector-effect="non-scaling-stroke" d="
  M 705.80 317.42
  Q 705.93 315.10 707.32 313.82
  C 712.99 308.62 718.51 302.56 724.16 297.00
  Q 733.49 287.82 742.35 278.93
  Q 743.39 277.88 744.32 276.76
  Q 745.33 275.53 746.38 274.65"
/>
<path stroke="#80a9cd" vector-effect="non-scaling-stroke" d="
  M 746.38 274.65
  L 809.52 337.44
  Q 810.48 338.40 811.44 337.44
  L 914.44 234.63
  Q 915.26 233.81 914.44 233.00
  L 810.80 129.66
  A 0.55 0.55 0.0 0 0 810.02 129.66
  L 746.24 193.33"
/>
<path stroke="#4d779d" vector-effect="non-scaling-stroke" d="
  M 746.24 193.33
  Q 744.44 194.37 742.53 196.28
  Q 704.52 234.39 666.36 272.36
  Q 663.95 274.75 662.61 274.36"
/>
<path stroke="#80a9cd" vector-effect="non-scaling-stroke" d="
  M 662.61 274.36
  L 623.25 235.08
  A 1.41 1.40 45.0 0 1 623.24 233.09
  L 664.71 191.72"
/>
<path stroke="#4d779d" vector-effect="non-scaling-stroke" d="
  M 664.71 191.72
  Q 666.43 190.75 667.97 189.22
  Q 676.25 180.99 684.39 172.61
  Q 686.31 170.63 694.93 162.22
  Q 700.24 157.02 705.13 151.46"
/>

<path stroke="#80a9cd" vector-effect="non-scaling-stroke" d="
  M 349.10 576.98
  C 360.11 581.31 371.05 581.78 382.41 580.98
  C 401.33 579.64 418.73 569.34 428.16 552.83
  Q 435.42 540.11 435.99 524.48
  C 437.04 495.62 422.16 472.35 393.81 463.89
  C 371.42 457.21 346.04 462.33 329.20 478.96
  C 318.94 489.10 313.40 503.73 312.99 518.32
  C 312.62 531.48 314.77 543.06 321.78 554.55
  Q 331.15 569.91 349.10 576.98"
/>
<path stroke="#80a9cd" vector-effect="non-scaling-stroke" d="
  M 480.83 521.90
  Q 482.75 522.11 484.56 522.15
  Q 495.58 522.40 507.40 522.38
  Q 513.68 522.36 518.95 523.61
  C 525.09 525.05 527.40 532.38 527.84 538.00
  Q 527.90 538.90 528.81 538.90
  L 531.79 538.92
  Q 532.75 538.93 532.75 537.96
  L 532.75 499.19
  Q 532.75 498.37 531.93 498.42
  L 528.73 498.59
  Q 527.90 498.64 527.83 499.46
  C 527.28 505.49 525.19 511.83 518.70 513.55
  Q 513.93 514.81 508.25 514.82
  Q 495.23 514.85 481.25 514.94
  Q 480.32 514.94 480.32 514.01
  L 480.36 474.25
  A 3.62 3.62 0.0 0 1 483.94 470.64
  Q 501.03 470.48 518.10 470.56
  Q 522.50 470.58 527.94 471.79
  C 536.37 473.66 538.47 480.05 539.98 487.82
  Q 540.10 488.42 540.72 488.44
  L 544.37 488.55
  Q 545.08 488.58 545.07 487.87
  L 544.70 464.06
  Q 544.70 463.60 544.24 463.60
  L 445.51 463.64
  Q 444.60 463.64 444.56 464.55
  L 444.50 466.18
  A 0.98 0.98 0.0 0 0 445.49 467.20
  C 449.74 467.19 457.26 468.18 459.24 472.75
  Q 460.90 476.58 460.90 481.81
  Q 460.92 522.52 460.90 561.52
  Q 460.90 565.17 459.92 568.54
  C 458.03 574.98 451.18 575.19 445.53 575.82
  Q 444.47 575.94 444.43 577.01
  L 444.40 577.97
  Q 444.36 579.08 445.47 579.09
  L 496.80 579.15
  Q 497.50 579.15 497.54 578.45
  L 497.62 577.02
  A 1.17 1.17 0.0 0 0 496.49 575.77
  C 487.39 575.48 480.37 573.79 480.35 562.79
  Q 480.32 541.98 480.28 522.40
  Q 480.28 521.84 480.83 521.90"
/>
<path stroke="#80a9cd" vector-effect="non-scaling-stroke" d="
  M 585.07 529.43
  Q 585.07 528.44 586.06 528.53
  Q 604.81 530.29 621.25 526.67
  C 632.07 524.28 643.56 516.27 647.29 505.37
  C 652.71 489.56 645.82 475.82 630.93 469.41
  Q 617.60 463.67 603.54 463.66
  Q 578.32 463.65 550.58 463.63
  Q 549.67 463.63 549.72 464.54
  L 549.79 465.73
  Q 549.87 467.08 551.22 467.21
  Q 554.59 467.51 558.41 468.42
  C 565.96 470.22 565.83 476.69 565.86 483.25
  Q 566.01 516.80 565.94 557.25
  Q 565.93 562.68 565.31 567.39
  C 564.38 574.52 556.93 574.97 551.37 575.79
  Q 549.76 576.02 549.75 577.64
  Q 549.75 577.83 549.77 578.01
  Q 549.91 579.08 550.99 579.08
  L 601.40 579.15
  Q 602.96 579.15 602.97 577.60
  L 602.97 577.30
  Q 602.97 576.08 601.76 575.97
  Q 596.27 575.47 592.09 574.37
  C 586.43 572.88 585.29 567.56 585.23 562.47
  Q 585.06 546.03 585.07 529.43"
/>
<path stroke="#80a9cd" vector-effect="non-scaling-stroke" d="
  M 689.80 529.38
  Q 689.81 528.47 690.72 528.54
  Q 704.44 529.73 717.37 528.17
  Q 729.02 526.75 735.76 523.10
  C 750.32 515.20 758.27 499.05 751.07 483.35
  C 743.70 467.27 719.68 463.40 703.94 463.55
  Q 680.07 463.79 655.51 463.59
  Q 654.75 463.59 654.51 464.31
  Q 654.30 464.95 654.40 465.62
  A 1.91 1.89 -1.7 0 0 656.10 467.21
  Q 660.30 467.63 664.24 468.75
  C 669.17 470.14 670.40 475.54 670.40 480.22
  Q 670.42 520.66 670.40 562.29
  C 670.39 568.40 669.02 573.69 661.97 574.74
  Q 659.00 575.19 656.01 575.79
  Q 653.57 576.28 654.61 578.53
  Q 654.86 579.07 655.46 579.07
  L 706.40 579.17
  A 1.61 1.61 0.0 0 0 708.01 577.61
  L 708.02 577.27
  Q 708.06 576.18 706.98 576.08
  Q 700.19 575.47 695.85 574.12
  C 690.74 572.55 690.01 567.12 689.91 562.27
  Q 689.60 547.57 689.80 529.38"
/>
<path stroke="#80a9cd" vector-effect="non-scaling-stroke" d="
  M 824.45 471.08
  C 832.40 471.00 842.82 470.48 850.48 473.00
  C 858.14 475.51 861.46 484.00 862.85 491.50
  Q 863.23 493.55 865.32 493.52
  L 865.97 493.51
  Q 867.93 493.49 867.86 491.53
  L 866.95 464.88
  Q 866.90 463.61 865.63 463.61
  L 761.19 463.62
  Q 760.60 463.62 760.57 464.20
  Q 759.76 477.03 759.60 492.43
  Q 759.59 493.75 760.89 493.54
  L 763.64 493.11
  A 0.93 0.92 -88.6 0 0 764.40 492.38
  C 765.65 486.21 767.83 479.10 772.73 475.28
  Q 775.17 473.38 779.01 472.42
  C 786.72 470.49 795.33 471.15 803.23 471.02
  Q 803.74 471.01 803.74 471.53
  Q 803.79 516.33 803.71 564.39
  C 803.69 574.79 795.52 575.01 787.77 575.62
  Q 785.89 575.77 786.10 577.65
  L 786.14 577.94
  Q 786.27 579.10 787.43 579.10
  L 840.10 579.15
  Q 841.35 579.15 841.45 577.90
  L 841.50 577.34
  Q 841.61 575.97 840.23 575.86
  Q 835.12 575.44 830.70 574.39
  C 825.49 573.15 823.49 568.06 823.49 563.09
  Q 823.50 514.15 823.50 472.04
  A 0.96 0.96 0.0 0 1 824.45 471.08"
/>
<path stroke="#80a9cd" vector-effect="non-scaling-stroke" d="
  M 404.32 559.90
  C 413.40 546.70 414.84 531.27 414.23 515.44
  C 413.39 493.53 402.48 469.78 377.72 467.93
  C 353.70 466.13 339.06 484.03 335.73 505.89
  Q 332.71 525.74 337.16 543.55
  C 341.14 559.48 352.15 572.42 368.71 574.75
  C 382.74 576.72 396.34 571.52 404.32 559.90"
/>
<path stroke="#80a9cd" vector-effect="non-scaling-stroke" d="
  M 585.26 473.21
  L 585.02 518.97
  A 2.67 2.67 0.0 0 0 587.68 521.65
  L 601.16 521.72
  A 27.09 23.87 0.3 0 0 628.37 497.99
  L 628.39 494.63
  A 27.09 23.87 0.3 0 0 601.42 470.62
  L 587.94 470.55
  A 2.67 2.67 0.0 0 0 585.26 473.21"
/>
<path stroke="#80a9cd" vector-effect="non-scaling-stroke" d="
  M 689.88 473.34
  L 689.64 518.90
  A 2.78 2.78 0.0 0 0 692.41 521.69
  L 705.56 521.76
  A 27.35 23.79 0.3 0 0 733.03 498.11
  L 733.05 494.57
  A 27.35 23.79 0.3 0 0 705.82 470.64
  L 692.67 470.57
  A 2.78 2.78 0.0 0 0 689.88 473.34"
/>
</g>
<path fill="#009d56" d="
  M 494.43 151.25
  Q 494.42 152.02 493.84 152.59
  Q 474.34 171.84 455.06 191.31
  Q 454.28 192.09 453.38 192.42
  L 390.17 130.04
  A 1.00 1.00 0.0 0 0 388.76 130.04
  L 285.30 233.19
  Q 284.71 233.78 285.30 234.36
  L 389.09 337.79
  A 0.85 0.85 0.0 0 0 390.29 337.79
  L 453.23 274.89
  Q 454.11 274.65 454.89 273.89
  Q 479.10 249.88 536.06 192.65
  L 576.60 232.64
  Q 577.95 233.97 576.60 235.31
  L 535.86 275.82
  Q 514.27 296.04 494.44 316.86
  Q 491.57 320.46 488.05 323.70
  Q 482.73 328.61 481.26 330.13
  Q 476.96 334.55 473.62 337.87
  Q 430.66 380.52 397.06 414.06
  Q 393.90 417.21 390.79 420.31
  Q 389.54 421.56 388.29 420.31
  L 202.72 235.35
  Q 201.51 234.15 202.62 232.86
  C 203.81 231.47 205.66 230.07 206.90 228.83
  Q 300.50 135.60 388.53 47.52
  A 1.55 1.54 44.9 0 1 390.72 47.52
  L 494.43 151.25
  Z"
/>
<path fill="#00529b" d="
  M 705.80 317.42
  Q 705.93 315.10 707.32 313.82
  C 712.99 308.62 718.51 302.56 724.16 297.00
  Q 733.49 287.82 742.35 278.93
  Q 743.39 277.88 744.32 276.76
  Q 745.33 275.53 746.38 274.65
  L 809.52 337.44
  Q 810.48 338.40 811.44 337.44
  L 914.44 234.63
  Q 915.26 233.81 914.44 233.00
  L 810.80 129.66
  A 0.55 0.55 0.0 0 0 810.02 129.66
  L 746.24 193.33
  Q 744.44 194.37 742.53 196.28
  Q 704.52 234.39 666.36 272.36
  Q 663.95 274.75 662.61 274.36
  L 623.25 235.08
  A 1.41 1.40 45.0 0 1 623.24 233.09
  L 664.71 191.72
  Q 666.43 190.75 667.97 189.22
  Q 676.25 180.99 684.39 172.61
  Q 686.31 170.63 694.93 162.22
  Q 700.24 157.02 705.13 151.46
  L 809.42 47.26
  A 1.15 1.15 0.0 0 1 811.04 47.25
  L 997.93 233.19
  A 0.53 0.52 34.9 0 1 998.04 233.78
  Q 997.32 235.33 995.80 236.86
  Q 953.86 278.90 911.37 320.97
  Q 894.08 338.10 881.86 350.70
  C 878.48 354.19 874.78 357.44 871.40 360.90
  Q 859.66 372.95 846.99 385.33
  C 834.92 397.11 823.32 409.25 811.30 420.77
  A 1.08 1.08 0.0 0 1 809.80 420.75
  L 705.80 317.42
  Z"
/>
<path fill="#9a9b9f" d="
  M 705.13 151.46
  Q 700.24 157.02 694.93 162.22
  Q 686.31 170.63 684.39 172.61
  Q 676.25 180.99 667.97 189.22
  Q 666.43 190.75 664.71 191.72
  Q 664.06 191.88 663.60 191.87
  Q 663.10 191.85 662.72 191.47
  Q 640.12 168.69 617.45 146.13
  C 612.01 140.72 606.34 135.64 601.13 130.09
  A 1.48 1.48 0.0 0 0 599.01 130.05
  L 536.06 192.65
  Q 479.10 249.88 454.89 273.89
  Q 454.11 274.65 453.23 274.89
  L 412.79 234.49
  A 0.69 0.69 0.0 0 1 412.79 233.51
  Q 432.65 213.76 452.44 193.95
  Q 453.21 193.17 453.38 192.42
  Q 454.28 192.09 455.06 191.31
  Q 474.34 171.84 493.84 152.59
  Q 494.42 152.02 494.43 151.25
  Q 495.41 151.15 496.28 150.28
  Q 547.61 98.88 599.06 47.56
  A 0.92 0.91 31.6 0 1 600.00 47.34
  Q 601.52 47.86 602.63 49.07
  C 607.21 54.07 611.98 58.43 616.65 63.10
  Q 660.76 107.11 705.13 151.46
  Z"
/>
<path fill="#9a9b9f" d="
  M 746.24 193.33
  L 786.90 233.35
  A 0.66 0.66 0.0 0 1 786.91 234.28
  L 746.38 274.65
  Q 745.33 275.53 744.32 276.76
  Q 743.39 277.88 742.35 278.93
  Q 733.49 287.82 724.16 297.00
  C 718.51 302.56 712.99 308.62 707.32 313.82
  Q 705.93 315.10 705.80 317.42
  Q 704.83 316.64 703.82 317.57
  Q 697.82 323.04 685.88 335.23
  Q 678.65 342.61 671.71 349.38
  C 659.57 361.21 647.97 373.18 636.04 384.93
  C 624.84 395.97 612.73 408.55 599.86 420.78
  A 0.68 0.67 45.3 0 1 598.92 420.77
  L 494.44 316.86
  Q 514.27 296.04 535.86 275.82
  L 598.64 338.25
  Q 599.47 339.08 600.30 338.25
  Q 631.45 307.20 662.11 276.49
  Q 662.48 276.13 662.58 275.61
  Q 662.68 275.05 662.61 274.36
  Q 663.95 274.75 666.36 272.36
  Q 704.52 234.39 742.53 196.28
  Q 744.44 194.37 746.24 193.33
  Z"
/>
<path fill="#00529b" d="
  M 349.10 576.98
  Q 331.15 569.91 321.78 554.55
  C 314.77 543.06 312.62 531.48 312.99 518.32
  C 313.40 503.73 318.94 489.10 329.20 478.96
  C 346.04 462.33 371.42 457.21 393.81 463.89
  C 422.16 472.35 437.04 495.62 435.99 524.48
  Q 435.42 540.11 428.16 552.83
  C 418.73 569.34 401.33 579.64 382.41 580.98
  C 371.05 581.78 360.11 581.31 349.10 576.98
  Z
  M 404.32 559.90
  C 413.40 546.70 414.84 531.27 414.23 515.44
  C 413.39 493.53 402.48 469.78 377.72 467.93
  C 353.70 466.13 339.06 484.03 335.73 505.89
  Q 332.71 525.74 337.16 543.55
  C 341.14 559.48 352.15 572.42 368.71 574.75
  C 382.74 576.72 396.34 571.52 404.32 559.90
  Z"
/>
<path fill="#00529b" d="
  M 480.28 522.40
  Q 480.32 541.98 480.35 562.79
  C 480.37 573.79 487.39 575.48 496.49 575.77
  A 1.17 1.17 0.0 0 1 497.62 577.02
  L 497.54 578.45
  Q 497.50 579.15 496.80 579.15
  L 445.47 579.09
  Q 444.36 579.08 444.40 577.97
  L 444.43 577.01
  Q 444.47 575.94 445.53 575.82
  C 451.18 575.19 458.03 574.98 459.92 568.54
  Q 460.90 565.17 460.90 561.52
  Q 460.92 522.52 460.90 481.81
  Q 460.90 476.58 459.24 472.75
  C 457.26 468.18 449.74 467.19 445.49 467.20
  A 0.98 0.98 0.0 0 1 444.50 466.18
  L 444.56 464.55
  Q 444.60 463.64 445.51 463.64
  L 544.24 463.60
  Q 544.70 463.60 544.70 464.06
  L 545.07 487.87
  Q 545.08 488.58 544.37 488.55
  L 540.72 488.44
  Q 540.10 488.42 539.98 487.82
  C 538.47 480.05 536.37 473.66 527.94 471.79
  Q 522.50 470.58 518.10 470.56
  Q 501.03 470.48 483.94 470.64
  A 3.62 3.62 0.0 0 0 480.36 474.25
  L 480.32 514.01
  Q 480.32 514.94 481.25 514.94
  Q 495.23 514.85 508.25 514.82
  Q 513.93 514.81 518.70 513.55
  C 525.19 511.83 527.28 505.49 527.83 499.46
  Q 527.90 498.64 528.73 498.59
  L 531.93 498.42
  Q 532.75 498.37 532.75 499.19
  L 532.75 537.96
  Q 532.75 538.93 531.79 538.92
  L 528.81 538.90
  Q 527.90 538.90 527.84 538.00
  C 527.40 532.38 525.09 525.05 518.95 523.61
  Q 513.68 522.36 507.40 522.38
  Q 495.58 522.40 484.56 522.15
  Q 482.75 522.11 480.83 521.90
  Q 480.28 521.84 480.28 522.40
  Z"
/>
<path fill="#00529b" d="
  M 585.07 529.43
  Q 585.06 546.03 585.23 562.47
  C 585.29 567.56 586.43 572.88 592.09 574.37
  Q 596.27 575.47 601.76 575.97
  Q 602.97 576.08 602.97 577.30
  L 602.97 577.60
  Q 602.96 579.15 601.40 579.15
  L 550.99 579.08
  Q 549.91 579.08 549.77 578.01
  Q 549.75 577.83 549.75 577.64
  Q 549.76 576.02 551.37 575.79
  C 556.93 574.97 564.38 574.52 565.31 567.39
  Q 565.93 562.68 565.94 557.25
  Q 566.01 516.80 565.86 483.25
  C 565.83 476.69 565.96 470.22 558.41 468.42
  Q 554.59 467.51 551.22 467.21
  Q 549.87 467.08 549.79 465.73
  L 549.72 464.54
  Q 549.67 463.63 550.58 463.63
  Q 578.32 463.65 603.54 463.66
  Q 617.60 463.67 630.93 469.41
  C 645.82 475.82 652.71 489.56 647.29 505.37
  C 643.56 516.27 632.07 524.28 621.25 526.67
  Q 604.81 530.29 586.06 528.53
  Q 585.07 528.44 585.07 529.43
  Z
  M 585.26 473.21
  L 585.02 518.97
  A 2.67 2.67 0.0 0 0 587.68 521.65
  L 601.16 521.72
  A 27.09 23.87 0.3 0 0 628.37 497.99
  L 628.39 494.63
  A 27.09 23.87 0.3 0 0 601.42 470.62
  L 587.94 470.55
  A 2.67 2.67 0.0 0 0 585.26 473.21
  Z"
/>
<path fill="#00529b" d="
  M 689.80 529.38
  Q 689.60 547.57 689.91 562.27
  C 690.01 567.12 690.74 572.55 695.85 574.12
  Q 700.19 575.47 706.98 576.08
  Q 708.06 576.18 708.02 577.27
  L 708.01 577.61
  A 1.61 1.61 0.0 0 1 706.40 579.17
  L 655.46 579.07
  Q 654.86 579.07 654.61 578.53
  Q 653.57 576.28 656.01 575.79
  Q 659.00 575.19 661.97 574.74
  C 669.02 573.69 670.39 568.40 670.40 562.29
  Q 670.42 520.66 670.40 480.22
  C 670.40 475.54 669.17 470.14 664.24 468.75
  Q 660.30 467.63 656.10 467.21
  A 1.91 1.89 -1.7 0 1 654.40 465.62
  Q 654.30 464.95 654.51 464.31
  Q 654.75 463.59 655.51 463.59
  Q 680.07 463.79 703.94 463.55
  C 719.68 463.40 743.70 467.27 751.07 483.35
  C 758.27 499.05 750.32 515.20 735.76 523.10
  Q 729.02 526.75 717.37 528.17
  Q 704.44 529.73 690.72 528.54
  Q 689.81 528.47 689.80 529.38
  Z
  M 689.88 473.34
  L 689.64 518.90
  A 2.78 2.78 0.0 0 0 692.41 521.69
  L 705.56 521.76
  A 27.35 23.79 0.3 0 0 733.03 498.11
  L 733.05 494.57
  A 27.35 23.79 0.3 0 0 705.82 470.64
  L 692.67 470.57
  A 2.78 2.78 0.0 0 0 689.88 473.34
  Z"
/>
<path fill="#00529b" d="
  M 824.45 471.08
  A 0.96 0.96 0.0 0 0 823.50 472.04
  Q 823.50 514.15 823.49 563.09
  C 823.49 568.06 825.49 573.15 830.70 574.39
  Q 835.12 575.44 840.23 575.86
  Q 841.61 575.97 841.50 577.34
  L 841.45 577.90
  Q 841.35 579.15 840.10 579.15
  L 787.43 579.10
  Q 786.27 579.10 786.14 577.94
  L 786.10 577.65
  Q 785.89 575.77 787.77 575.62
  C 795.52 575.01 803.69 574.79 803.71 564.39
  Q 803.79 516.33 803.74 471.53
  Q 803.74 471.01 803.23 471.02
  C 795.33 471.15 786.72 470.49 779.01 472.42
  Q 775.17 473.38 772.73 475.28
  C 767.83 479.10 765.65 486.21 764.40 492.38
  A 0.93 0.92 -88.6 0 1 763.64 493.11
  L 760.89 493.54
  Q 759.59 493.75 759.60 492.43
  Q 759.76 477.03 760.57 464.20
  Q 760.60 463.62 761.19 463.62
  L 865.63 463.61
  Q 866.90 463.61 866.95 464.88
  L 867.86 491.53
  Q 867.93 493.49 865.97 493.51
  L 865.32 493.52
  Q 863.23 493.55 862.85 491.50
  C 861.46 484.00 858.14 475.51 850.48 473.00
  C 842.82 470.48 832.40 471.00 824.45 471.08
  Z"
/>

</svg>
